<svg xmlns="http://www.w3.org/2000/svg" viewBox="0 0 240 80" role="img" aria-labelledby="title"><title>KAILV Chemical Logo</title><defs><linearGradient id="leafGrad" x1="0%" y1="0%" x2="0%" y2="100%"><stop offset="0%" stop-color="#0fb66f"/><stop offset="100%" stop-color="#0a8f54"/></linearGradient><linearGradient id="ringGrad" x1="0%" y1="0%" x2="100%" y2="0%"><stop offset="0%" stop-color="#0087d8"/><stop offset="100%" stop-color="#00b5e9"/></linearGradient></defs><g fill="none" stroke="none" stroke-width="1"><g transform="translate(20,10)"><ellipse cx="40" cy="30" rx="38" ry="30" fill="url(#ringGrad)" opacity="0.22"/><ellipse cx="40" cy="30" rx="30" ry="24" fill="url(#ringGrad)" opacity="0.32"/><path d="M39 6c-9 18-11 31-2 44 0 0-15-10-15-26 0-10 7-16 17-18z" fill="url(#leafGrad)"/><path d="M46 54c9-18 11-31 2-44 0 0 15 10 15 26 0 10-7 16-17 18z" fill="url(#leafGrad)"/><circle cx="40" cy="30" r="8" fill="#0a8f54" opacity="0.7"/></g><text x="110" y="44" font-family="Segoe UI, Arial, sans-serif" font-weight="700" font-size="28" fill="#2d2d2d">KAIYU</text><text x="110" y="64" font-family="Segoe UI, Arial, sans-serif" font-size="12" fill="#555">Taizhou Kailv Chemical Co., Ltd.</text></g></svg>