<?xml version="1.0" encoding="UTF-8"?>
<svg version="1.1" xmlns="http://www.w3.org/2000/svg" width="400" height="74">
<path d="M0 0 C29.7 0 59.4 0 90 0 C90 21.45 90 42.9 90 65 C60.3 65 30.6 65 0 65 C0 43.55 0 22.1 0 0 Z " fill="#FBFDFD" transform="translate(0,0)"/>
<path d="M0 0 C-2.10754729 2.10754729 -3.51990766 2.72139167 -6.25 3.8125 C-11.32675923 6.01978662 -15.35017564 8.37527942 -18.375 13.1875 C-19.90341809 20.06538141 -19.73457287 26.10835918 -16.21484375 32.30859375 C-14.00952355 35.37902349 -11.34605837 37.32697081 -8 39 C-8 37.35 -8 35.7 -8 34 C-6 34 -4 34 -2 34 C-2 34.66 -2 35.32 -2 36 C-2.66 36 -3.32 36 -4 36 C-3.34 37.32 -2.68 38.64 -2 40 C-3.485 39.505 -3.485 39.505 -5 39 C-5 39.66 -5 40.32 -5 41 C-4.01 41.66 -3.02 42.32 -2 43 C-2.875 46.875 -2.875 46.875 -4 48 C-11.2449778 47.84585154 -17.36675834 44.35708078 -22.64453125 39.48046875 C-27.22260646 34.23850348 -29.6311803 29.24233846 -29.33984375 22.296875 C-28.31867021 15.39515036 -24.50314867 10.86704891 -19.2265625 6.5390625 C-13.48866813 2.57286885 -7.00460787 -0.18931373 0 0 Z " fill="#0C80C2" transform="translate(49,16)"/>
<path d="M0 0 C8.34517047 3.12608476 13.91613733 7.77084156 18.4375 15.4375 C19.82125382 21.74126741 19.68161712 27.31847681 16.45703125 33.015625 C11.68843922 39.51011495 5.80334885 44.01609775 -2 46 C-4.23046875 45.55859375 -4.23046875 45.55859375 -6 45 C-5.11248047 44.56300781 -5.11248047 44.56300781 -4.20703125 44.1171875 C1.71235273 41.04644671 5.94173317 38.11653366 9 32 C9.58336426 25.33879415 8.93164181 19.29988809 5.5 13.4375 C2.37031247 10.38605466 -1.07202019 8.5992036 -4.953125 6.625 C-5.62859375 6.08875 -6.3040625 5.5525 -7 5 C-7.296875 2.3125 -7.296875 2.3125 -7 0 C-4.2693672 -1.3653164 -2.92558062 -0.75485098 0 0 Z " fill="#0E92D5" transform="translate(69,18)"/>
<path d="M0 0 C0.66 0 1.32 0 2 0 C2.08636719 0.556875 2.17273437 1.11375 2.26171875 1.6875 C3.07308273 6.09417408 4.0589465 9.41767059 6.625 13.125 C9.13366565 16.88053221 9.86396739 19.42097281 9 24 C5.4729867 28.43395958 1.35160982 31.21613006 -4 33 C-4.226875 31.824375 -4.45375 30.64875 -4.6875 29.4375 C-5.47151418 26.20486181 -6.49065356 24.09280204 -8.5625 21.5 C-11.53787291 17.58925536 -12.23601002 14.95621047 -12 10 C-9.33979955 5.85568771 -5.26511555 3.31534844 -1 1 C-0.67 0.67 -0.34 0.34 0 0 Z " fill="#3BA326" transform="translate(55,16)"/>
<path d="M0 0 C0.99 0.33 1.98 0.66 3 1 C2.34 2.65 1.68 4.3 1 6 C1.99 5.34 2.98 4.68 4 4 C6.48046875 4.0234375 6.48046875 4.0234375 9.1875 4.375 C10.08855469 4.48585938 10.98960937 4.59671875 11.91796875 4.7109375 C12.94857422 4.85402344 12.94857422 4.85402344 14 5 C14 4.34 14 3.68 14 3 C11.03 3 8.06 3 5 3 C5 2.34 5 1.68 5 1 C8.96 1 12.92 1 17 1 C16.67 3.31 16.34 5.62 16 8 C16.66 8 17.32 8 18 8 C18 8.66 18 9.32 18 10 C16.35 10.33 14.7 10.66 13 11 C15.475 11.495 15.475 11.495 18 12 C17.67 12.66 17.34 13.32 17 14 C16.34 14 15.68 14 15 14 C15.33 14.66 15.66 15.32 16 16 C16.99 16.33 17.98 16.66 19 17 C18.67 17.99 18.34 18.98 18 20 C16.0625 19.625 16.0625 19.625 14 19 C13.67 18.34 13.34 17.68 13 17 C12.01 19.475 12.01 19.475 11 22 C10.01 21.67 9.02 21.34 8 21 C8 20.34 8 19.68 8 19 C7.01 19.33 6.02 19.66 5 20 C2.66700175 20.03954234 0.33291811 20.04401732 -2 20 C-2.33 19.01 -2.66 18.02 -3 17 C-0.03 16.67 2.94 16.34 6 16 C5.67 15.67 5.34 15.34 5 15 C2.66055264 15.28730055 0.3260857 15.61936779 -2 16 C-2 12 -2 12 -1 11 C-1.66 10.67 -2.32 10.34 -3 10 C-2.39009109 6.44219804 -1.4216319 3.3171411 0 0 Z M5 6 C5 6.66 5 7.32 5 8 C7.97 8 10.94 8 14 8 C14 7.67 14 7.34 14 7 C11.03 6.67 8.06 6.34 5 6 Z M3 9 C2.34 10.32 1.68 11.64 1 13 C2.670625 12.690625 2.670625 12.690625 4.375 12.375 C5.57125 12.25125 6.7675 12.1275 8 12 C8.66 12.66 9.32 13.32 10 14 C10 12.68 10 11.36 10 10 C7.69 9.67 5.38 9.34 3 9 Z M9 17 C8.67 17.66 8.34 18.32 8 19 C8.66 19 9.32 19 10 19 C9.67 18.34 9.34 17.68 9 17 Z " fill="#3A3838" transform="translate(168,23)"/>
<path d="M0 0 C-0.33 3.96 -0.66 7.92 -1 12 C-3.31 12 -5.62 12 -8 12 C-8 12.99 -8 13.98 -8 15 C-5.69 14.34 -3.38 13.68 -1 13 C-0.34 8.71 0.32 4.42 1 0 C2.98 0 4.96 0 7 0 C7.495 6.93 7.495 6.93 8 14 C8.99 14.33 9.98 14.66 11 15 C10.67 16.32 10.34 17.64 10 19 C8.35 19 6.7 19 5 19 C5 13.39 5 7.78 5 2 C4.34 2 3.68 2 3 2 C3.03480469 2.73605469 3.06960937 3.47210938 3.10546875 4.23046875 C3.3867864 14.37130028 3.3867864 14.37130028 0 18 C-2.1875 18.8125 -2.1875 18.8125 -4 19 C-4 18.34 -4 17.68 -4 17 C-5.98 17.33 -7.96 17.66 -10 18 C-11.42366767 15.15266466 -10.52297345 13.07246902 -10 10 C-10.33 9.67 -10.66 9.34 -11 9 C-11.07179964 7.48071962 -11.08392007 5.95832518 -11.0625 4.4375 C-11.05347656 3.61121094 -11.04445312 2.78492188 -11.03515625 1.93359375 C-11.02355469 1.29550781 -11.01195312 0.65742188 -11 0 C-7.08263419 -1.1700097 -4.02040985 -0.69584017 0 0 Z " fill="#3A3838" transform="translate(153,25)"/>
<path d="M0 0 C1.32 0.33 2.64 0.66 4 1 C3.67 1.66 3.34 2.32 3 3 C2.77532169 4.53668865 2.59203195 6.07968054 2.4375 7.625 C2.35371094 8.44226562 2.26992187 9.25953125 2.18359375 10.1015625 C2.12300781 10.72804688 2.06242188 11.35453125 2 12 C5.2117961 10.36221601 5.2117961 10.36221601 5.51171875 7.6171875 C5.56972656 6.71226563 5.62773437 5.80734375 5.6875 4.875 C5.75324219 3.96492188 5.81898438 3.05484375 5.88671875 2.1171875 C5.92410156 1.41851563 5.96148437 0.71984375 6 0 C6.99 0 7.98 0 9 0 C9.33 1.98 9.66 3.96 10 6 C11.65 4.68 13.3 3.36 15 2 C15 3.32 15 4.64 15 6 C13.7934375 7.175625 13.7934375 7.175625 12.5625 8.375 C9.65865078 11.34967481 9.28360997 12.9349238 9 17 C10.65 17 12.3 17 14 17 C14 16.34 14 15.68 14 15 C14.99 15 15.98 15 17 15 C16.67 16.65 16.34 18.3 16 20 C13.03 20 10.06 20 7 20 C6.67 18.02 6.34 16.04 6 14 C4.68 14.33 3.36 14.66 2 15 C2 16.65 2 18.3 2 20 C1.01 20 0.02 20 -1 20 C-1.33 16.7 -1.66 13.4 -2 10 C-2.99 10 -3.98 10 -5 10 C-3.33333333 6.66666667 -1.66666667 3.33333333 0 0 Z " fill="#3A3838" transform="translate(193,24)"/>
<path d="M0 0 C0.99 0.33 1.98 0.66 3 1 C1.125 4.875 1.125 4.875 0 6 C1.98 6 3.96 6 6 6 C5.67 5.01 5.34 4.02 5 3 C8.81913463 3.54559066 10.66946583 4.9461966 13 8 C12.93489343 12.49235329 11.8858886 16.57055701 11 21 C5.72 21 0.44 21 -5 21 C-5.22786458 18.52604167 -5.45572917 16.05208333 -5.68359375 13.578125 C-5.96238465 11.30649548 -6.38790577 9.20148177 -7 7 C-6.21625 6.401875 -5.4325 5.80375 -4.625 5.1875 C-1.85425677 3.08914751 -1.85425677 3.08914751 0 0 Z M-5 10 C-5 10.33 -5 10.66 -5 11 C-0.05 11 4.9 11 10 11 C9.67 10.34 9.34 9.68 9 9 C4.27813204 8.84768168 -0.32289529 9.42937285 -5 10 Z M-3 14 C-3 15.32 -3 16.64 -3 18 C0.63 18 4.26 18 8 18 C8 16.68 8 15.36 8 14 C4.37 14 0.74 14 -3 14 Z " fill="#3A3838" transform="translate(103,23)"/>
<path d="M0 0 C0.99 0 1.98 0 3 0 C3 0.66 3 1.32 3 2 C6.3 2.33 9.6 2.66 13 3 C12.67 3.99 12.34 4.98 12 6 C6.555 5.505 6.555 5.505 1 5 C1 5.66 1 6.32 1 7 C4.3 7 7.6 7 11 7 C10.67 11.62 10.34 16.24 10 21 C8.35 20.67 6.7 20.34 5 20 C5.99 19.67 6.98 19.34 8 19 C8 18.34 8 17.68 8 17 C5.03 17 2.06 17 -1 17 C-1 18.32 -1 19.64 -1 21 C-1.99 21 -2.98 21 -4 21 C-4 18.36 -4 15.72 -4 13 C-5.98 13.99 -5.98 13.99 -8 15 C-8.33 14.01 -8.66 13.02 -9 12 C-8.195625 11.38125 -7.39125 10.7625 -6.5625 10.125 C-3.96125481 8.25835959 -3.96125481 8.25835959 -3 6 C-4.65 6 -6.3 6 -8 6 C-8 5.01 -8 4.02 -8 3 C-6.865625 2.87625 -5.73125 2.7525 -4.5625 2.625 C-3.386875 2.41875 -2.21125 2.2125 -1 2 C-0.67 1.34 -0.34 0.68 0 0 Z M-1 9 C-1 9.66 -1 10.32 -1 11 C1.97 11 4.94 11 8 11 C8 10.34 8 9.68 8 9 C5.03 9 2.06 9 -1 9 Z M-1 13 C-1 13.66 -1 14.32 -1 15 C1.97 15 4.94 15 8 15 C8 14.34 8 13.68 8 13 C5.03 13 2.06 13 -1 13 Z " fill="#3A3838" transform="translate(244,23)"/>
<path d="M0 0 C0.66 0 1.32 0 2 0 C2 1.98 2 3.96 2 6 C2.99 6 3.98 6 5 6 C5.33 4.35 5.66 2.7 6 1 C6.66 1 7.32 1 8 1 C8 2.65 8 4.3 8 6 C8.99 6 9.98 6 11 6 C11.33 4.02 11.66 2.04 12 0 C12.99 0 13.98 0 15 0 C15 6.6 15 13.2 15 20 C14.01 20 13.02 20 12 20 C12 17.36 12 14.72 12 12 C11.34 12 10.68 12 10 12 C9.67 11.34 9.34 10.68 9 10 C8.67 12.97 8.34 15.94 8 19 C7.34 19 6.68 19 6 19 C6 16.69 6 14.38 6 12 C5.01 12 4.02 12 3 12 C2.5875 13.134375 2.175 14.26875 1.75 15.4375 C0 19 0 19 -2.1875 19.9375 C-3.0846875 19.9684375 -3.0846875 19.9684375 -4 20 C-3.690625 19.236875 -3.38125 18.47375 -3.0625 17.6875 C-1.44911945 13.60659626 -0.76625942 10.18030367 -0.4375 5.8125 C-0.35371094 4.72582031 -0.26992187 3.63914062 -0.18359375 2.51953125 C-0.12300781 1.68808594 -0.06242187 0.85664063 0 0 Z " fill="#3A3838" transform="translate(123,24)"/>
<path d="M0 0 C3.3 0 6.6 0 10 0 C10.33 3.96 10.66 7.92 11 12 C10.01 12.33 9.02 12.66 8 13 C9.32 14.32 10.64 15.64 12 17 C11.67 17.99 11.34 18.98 11 20 C10.38125 19.67 9.7625 19.34 9.125 19 C7.08981656 17.85806765 7.08981656 17.85806765 5 18 C3.32254318 18.63903117 1.65438613 19.30341637 0 20 C-1.17829199 17.64341603 -1.04414372 16.47426764 -0.87890625 13.8671875 C-0.83056641 13.06152344 -0.78222656 12.25585938 -0.73242188 11.42578125 C-0.67634766 10.58402344 -0.62027344 9.74226563 -0.5625 8.875 C-0.51029297 8.02550781 -0.45808594 7.17601562 -0.40429688 6.30078125 C-0.27448622 4.20020876 -0.1378826 2.10005809 0 0 Z M2 2 C2 2.66 2 3.32 2 4 C3.98 4 5.96 4 8 4 C8 3.34 8 2.68 8 2 C6.02 2 4.04 2 2 2 Z M2 6 C2 6.33 2 6.66 2 7 C3.98 7 5.96 7 8 7 C8 6.67 8 6.34 8 6 C6.02 6 4.04 6 2 6 Z M2 10 C2 11.98 2 13.96 2 16 C2.99 15.67 3.98 15.34 5 15 C4.67 13.35 4.34 11.7 4 10 C3.34 10 2.68 10 2 10 Z M6 10 C6.33 10.66 6.66 11.32 7 12 C7.33 11.34 7.66 10.68 8 10 C7.34 10 6.68 10 6 10 Z " fill="#3A3838" transform="translate(268,24)"/>
<path d="M0 0 C5.94 0 11.88 0 18 0 C18 0.66 18 1.32 18 2 C15.69 2 13.38 2 11 2 C11 6.62 11 11.24 11 16 C13.97 16 16.94 16 20 16 C20 16.66 20 17.32 20 18 C12.74 18 5.48 18 -2 18 C-2 17.34 -2 16.68 -2 16 C1.3 16 4.6 16 8 16 C8 11.38 8 6.76 8 2 C5.36 2 2.72 2 0 2 C0 1.34 0 0.68 0 0 Z " fill="#3A3838" transform="translate(213,25)"/>
<path d="M0 0 C0.99 0 1.98 0 3 0 C3 3.63 3 7.26 3 11 C0.37472811 11.05382106 -2.24944713 11.09358313 -4.875 11.125 C-5.62136719 11.14175781 -6.36773437 11.15851562 -7.13671875 11.17578125 C-9.09194461 11.1933959 -11.04742021 11.10320189 -13 11 C-13.66 10.34 -14.32 9.68 -15 9 C-14.46428571 5.46428571 -14.46428571 5.46428571 -13 4 C-11.33382885 3.95936168 -9.66611905 3.957279 -8 4 C-8 4.66 -8 5.32 -8 6 C-9.32 6 -10.64 6 -12 6 C-12 6.99 -12 7.98 -12 9 C-10.68 9 -9.36 9 -8 9 C-7.67 7.35 -7.34 5.7 -7 4 C-5.33388095 3.957279 -3.66617115 3.95936168 -2 4 C-1.67 4.33 -1.34 4.66 -1 5 C-0.67 3.35 -0.34 1.7 0 0 Z " fill="#3A3838" transform="translate(273,50)"/>
<path d="M0 0 C2.64 0 5.28 0 8 0 C7.814375 1.19625 7.62875 2.3925 7.4375 3.625 C6.9688803 7.28283707 7.18518987 10.37862166 8 14 C7.360625 14.2475 6.72125 14.495 6.0625 14.75 C3.81258459 15.81562433 3.81258459 15.81562433 3.25 18.125 C3.1675 18.74375 3.085 19.3625 3 20 C2.01 19.67 1.02 19.34 0 19 C0 12.73 0 6.46 0 0 Z M3 2 C3.33 3.32 3.66 4.64 4 6 C4.33 4.68 4.66 3.36 5 2 C4.34 2 3.68 2 3 2 Z M3 8 C3 9.98 3 11.96 3 14 C3.66 13.67 4.32 13.34 5 13 C4.67 11.35 4.34 9.7 4 8 C3.67 8 3.34 8 3 8 Z " fill="#3A3838" transform="translate(259,24)"/>
<path d="M0 0 C4.33333333 0 8.66666667 0 13 0 C13 1.65 13 3.3 13 5 C13.66 5 14.32 5 15 5 C15.33 3.68 15.66 2.36 16 1 C16 2.65 16 4.3 16 6 C13.625 6.125 13.625 6.125 11 6 C10.34 5.34 9.68 4.68 9 4 C8.67 4.66 8.34 5.32 8 6 C7.01 6 6.02 6 5 6 C5 4.68 5 3.36 5 2 C4.34 2 3.68 2 3 2 C3 3.32 3 4.64 3 6 C-0.3 6 -3.6 6 -7 6 C-6.34 4.35 -5.68 2.7 -5 1 C-4.01 1 -3.02 1 -2 1 C-1.67 1.66 -1.34 2.32 -1 3 C-0.67 2.01 -0.34 1.02 0 0 Z " fill="#75BF6E" transform="translate(55,50)"/>
<path d="M0 0 C0.66 0.33 1.32 0.66 2 1 C1.37240135 3.92879371 0.41377341 6.36095629 -1 9 C0.98 9 2.96 9 5 9 C4.67 7.68 4.34 6.36 4 5 C4.99 5 5.98 5 7 5 C9.10770759 7.88834003 10 9.38462395 10 13 C9.01 13 8.02 13 7 13 C7 12.34 7 11.68 7 11 C2.71 11.66 -1.58 12.32 -6 13 C-6.33 12.01 -6.66 11.02 -7 10 C-5.25 7.625 -5.25 7.625 -3 5 C-1.9731657 3.3497306 -0.96432076 1.68756133 0 0 Z " fill="#3A3838" transform="translate(291,31)"/>
<path d="M0 0 C6.27 0 12.54 0 19 0 C18.67 6.6 18.34 13.2 18 20 C16.35 20 14.7 20 13 20 C12.67 19.34 12.34 18.68 12 18 C12.99 17.67 13.98 17.34 15 17 C15.33 12.05 15.66 7.1 16 2 C8.08 2.495 8.08 2.495 0 3 C0 2.01 0 1.02 0 0 Z " fill="#3A3838" transform="translate(307,24)"/>
<path d="M0 0 C-2.09218961 2.09218961 -3.48298455 2.718591 -6.1875 3.8125 C-9.39445697 5.18321548 -12.13594899 6.67237919 -14.9375 8.75 C-18 11 -18 11 -20 11 C-21.79341527 12.32854809 -21.79341527 12.32854809 -23.625 14 C-24.57246094 14.8353125 -24.57246094 14.8353125 -25.5390625 15.6875 C-26.02117188 16.120625 -26.50328125 16.55375 -27 17 C-25.63603809 11.37365714 -21.52262852 8.23814049 -17 5 C-11.51394023 2.053455 -6.28402001 -0.16983838 0 0 Z " fill="#15A3E6" transform="translate(49,16)"/>
<path d="M0 0 C3.96 0 7.92 0 12 0 C12 2.64 12 5.28 12 8 C8.7 7.67 5.4 7.34 2 7 C2 7.66 2 8.32 2 9 C1.34 9 0.68 9 0 9 C0 6.03 0 3.06 0 0 Z M2 2 C2 2.99 2 3.98 2 5 C4.31 5 6.62 5 9 5 C9 4.01 9 3.02 9 2 C6.69 2 4.38 2 2 2 Z " fill="#3A3838" transform="translate(308,33)"/>
<path d="M0 0 C0.928125 0.20625 1.85625 0.4125 2.8125 0.625 C2.8125 1.285 2.8125 1.945 2.8125 2.625 C0.5025 2.625 -1.8075 2.625 -4.1875 2.625 C-3.8575 4.275 -3.5275 5.925 -3.1875 7.625 C-2.1975 7.955 -1.2075 8.285 -0.1875 8.625 C-0.1875 7.965 -0.1875 7.305 -0.1875 6.625 C-0.8475 6.625 -1.5075 6.625 -2.1875 6.625 C-2.1875 5.965 -2.1875 5.305 -2.1875 4.625 C-0.5375 4.625 1.1125 4.625 2.8125 4.625 C2.855221 6.29111905 2.85313832 7.95882885 2.8125 9.625 C1.8125 10.625 1.8125 10.625 -1.0625 10.875 C-4.1875 10.625 -4.1875 10.625 -6.125 9.5 C-7.1875 7.625 -7.1875 7.625 -7.0625 4.5625 C-5.80091213 0.32716929 -4.3640069 -0.51341258 0 0 Z " fill="#3A3838" transform="translate(181.1875,50.375)"/>
<path d="M0 0 C3.63 0 7.26 0 11 0 C12 5 12 5 12 7 C10.02 7 8.04 7 6 7 C5.67 5.35 5.34 3.7 5 2 C4.34 2 3.68 2 3 2 C3 3.65 3 5.3 3 7 C2.01 7 1.02 7 0 7 C0 4.69 0 2.38 0 0 Z " fill="#3A3838" transform="translate(185,54)"/>
<path d="M0 0 C0.99 0 1.98 0 3 0 C3 3.63 3 7.26 3 11 C0.125 11.125 0.125 11.125 -3 11 C-3.66 10.34 -4.32 9.68 -5 9 C-4.625 6.875 -4.625 6.875 -4 5 C-2.68 4.67 -1.36 4.34 0 4 C0 2.68 0 1.36 0 0 Z M-2 6 C-2 6.99 -2 7.98 -2 9 C-1.34 9 -0.68 9 0 9 C0 8.01 0 7.02 0 6 C-0.66 6 -1.32 6 -2 6 Z " fill="#3A3838" transform="translate(325,50)"/>
<path d="M0 0 C0.66 0 1.32 0 2 0 C2.33 0.99 2.66 1.98 3 3 C3.45375 2.505 3.9075 2.01 4.375 1.5 C6 0 6 0 8 0 C7.67 0.598125 7.34 1.19625 7 1.8125 C5.79212012 4.05386471 5.79212012 4.05386471 6 7 C6.94978897 9.15028304 6.94978897 9.15028304 8 11 C4.125 10.125 4.125 10.125 3 9 C2.67 9.66 2.34 10.32 2 11 C1.34 11 0.68 11 0 11 C0 7.37 0 3.74 0 0 Z " fill="#3A3838" transform="translate(148,50)"/>
<path d="M0 0 C3.3 0 6.6 0 10 0 C10 2.31 10 4.62 10 7 C9.34 7 8.68 7 8 7 C8 5.35 8 3.7 8 2 C7.34 2 6.68 2 6 2 C6 3.65 6 5.3 6 7 C5.34 7 4.68 7 4 7 C4 5.35 4 3.7 4 2 C3.34 2 2.68 2 2 2 C2 3.65 2 5.3 2 7 C1.34 7 0.68 7 0 7 C0 4.69 0 2.38 0 0 Z " fill="#3A3838" transform="translate(243,54)"/>
<path d="M0 0 C5.28 0 10.56 0 16 0 C16 0.99 16 1.98 16 3 C10.72 3 5.44 3 0 3 C0 2.01 0 1.02 0 0 Z " fill="#3A3838" transform="translate(305,28)"/>
<path d="M0 0 C0.7425 0.2475 1.485 0.495 2.25 0.75 C2.25 1.41 2.25 2.07 2.25 2.75 C0.27 2.75 -1.71 2.75 -3.75 2.75 C-3.42 4.4 -3.09 6.05 -2.75 7.75 C-1.1 7.75 0.55 7.75 2.25 7.75 C1.92 8.74 1.59 9.73 1.25 10.75 C-1.06 10.42 -3.37 10.09 -5.75 9.75 C-6.5 7 -6.5 7 -6.75 3.75 C-4.66788764 0.62683146 -3.81124618 -0.34647693 0 0 Z " fill="#3A3838" transform="translate(286.75,50.25)"/>
<path d="M0 0 C0.7425 0.2475 1.485 0.495 2.25 0.75 C2.25 1.41 2.25 2.07 2.25 2.75 C0.27 2.75 -1.71 2.75 -3.75 2.75 C-3.42 4.4 -3.09 6.05 -2.75 7.75 C-1.1 7.75 0.55 7.75 2.25 7.75 C1.92 8.74 1.59 9.73 1.25 10.75 C-1.06 10.42 -3.37 10.09 -5.75 9.75 C-6.5 7 -6.5 7 -6.75 3.75 C-4.66788764 0.62683146 -3.81124618 -0.34647693 0 0 Z " fill="#3A3838" transform="translate(223.75,50.25)"/>
<path d="M0 0 C0.66 0 1.32 0 2 0 C2 1.32 2 2.64 2 4 C3.32 4 4.64 4 6 4 C6.33 6.31 6.66 8.62 7 11 C6.01 11 5.02 11 4 11 C4 9.35 4 7.7 4 6 C3.34 6 2.68 6 2 6 C2 7.65 2 9.3 2 11 C1.34 11 0.68 11 0 11 C0 7.37 0 3.74 0 0 Z " fill="#3A3838" transform="translate(227,50)"/>
<path d="M0 0 C1.2065625 0.0309375 1.2065625 0.0309375 2.4375 0.0625 C3.5625 4.8125 3.5625 4.8125 2.4375 7.0625 C0.77138095 7.105221 -0.89632885 7.10313832 -2.5625 7.0625 C-3.5625 6.0625 -3.5625 6.0625 -3.6875 3.5625 C-3.51717518 0.15600356 -3.41884482 0.08338646 0 0 Z " fill="#3A3838" transform="translate(201.5625,53.9375)"/>
<path d="M0 0 C1.65 0 3.3 0 5 0 C5.66 2.31 6.32 4.62 7 7 C4.69 7 2.38 7 0 7 C0 4.69 0 2.38 0 0 Z " fill="#3A3838" transform="translate(157,54)"/>
<path d="M0 0 C0.99 0 1.98 0 3 0 C2.54300722 5.02692063 0.00758252 8.14896261 -3 12 C-3.99 11.67 -4.98 11.34 -6 11 C-4.18690997 7.22272911 -2.0926741 3.62730178 0 0 Z " fill="#3A3838" transform="translate(288,24)"/>
<path d="M0 0 C4.75447744 1.58482581 6.07272811 6.19181981 8.25 10.4375 C8.4975 10.953125 8.745 11.46875 9 12 C6.1157546 11.65514457 5.1792182 11.21744593 3.296875 8.93359375 C2.78640625 8.10988281 2.2759375 7.28617188 1.75 6.4375 C1.22921875 5.61121094 0.7084375 4.78492188 0.171875 3.93359375 C-0.21484375 3.29550781 -0.6015625 2.65742188 -1 2 C-0.67 1.34 -0.34 0.68 0 0 Z " fill="#3A3838" transform="translate(294,23)"/>
<path d="M0 0 C1.99954746 -0.04254356 4.00041636 -0.04080783 6 0 C7 1 7 1 7.0625 4.0625 C7.041875 5.031875 7.02125 6.00125 7 7 C6.34 7 5.68 7 5 7 C4.67 5.68 4.34 4.36 4 3 C3.67 4.32 3.34 5.64 3 7 C2.01 7 1.02 7 0 7 C0 4.69 0 2.38 0 0 Z " fill="#3A3838" transform="translate(206,54)"/>
<path d="M0 0 C1.2065625 0.0309375 1.2065625 0.0309375 2.4375 0.0625 C3.0975 1.3825 3.7575 2.7025 4.4375 4.0625 C3.4475 5.5475 3.4475 5.5475 2.4375 7.0625 C-0.1875 7.25 -0.1875 7.25 -2.5625 7.0625 C-2.94383299 5.0710944 -3.27575582 3.06970923 -3.5625 1.0625 C-2.5625 0.0625 -2.5625 0.0625 0 0 Z M-0.5625 2.0625 C-0.5625 3.0525 -0.5625 4.0425 -0.5625 5.0625 C0.0975 5.0625 0.7575 5.0625 1.4375 5.0625 C1.4375 4.0725 1.4375 3.0825 1.4375 2.0625 C0.7775 2.0625 0.1175 2.0625 -0.5625 2.0625 Z " fill="#3A3838" transform="translate(131.5625,53.9375)"/>
<path d="M0 0 C0.66 0 1.32 0 2 0 C2 1.32 2 2.64 2 4 C3.32 4.33 4.64 4.66 6 5 C6 6.98 6 8.96 6 11 C5.34 11 4.68 11 4 11 C4 9.35 4 7.7 4 6 C3.34 6 2.68 6 2 6 C2 7.65 2 9.3 2 11 C1.34 11 0.68 11 0 11 C0 7.37 0 3.74 0 0 Z " fill="#3A3838" transform="translate(121,50)"/>
<path d="M0 0 C1.2065625 0.0309375 1.2065625 0.0309375 2.4375 0.0625 C3.37173645 3.07281744 3.48199911 3.92900268 2.4375 7.0625 C0.77138095 7.105221 -0.89632885 7.10313832 -2.5625 7.0625 C-3.5625 6.0625 -3.5625 6.0625 -3.6875 3.5625 C-3.51717518 0.15600356 -3.41884482 0.08338646 0 0 Z " fill="#3A3838" transform="translate(238.5625,53.9375)"/>
<path d="M0 0 C1.65 0 3.3 0 5 0 C5.33 2.31 5.66 4.62 6 7 C4.02 7 2.04 7 0 7 C-0.93423645 3.98968256 -1.04449911 3.13349732 0 0 Z " fill="#3A3838" transform="translate(103,54)"/>
<path d="M0 0 C2.5 0.125 2.5 0.125 3.5 1.125 C3.625 3.625 3.625 3.625 3.5 6.125 C2.5 7.125 2.5 7.125 0 7.25 C-2.5 7.125 -2.5 7.125 -3.5 6.125 C-3.625 3.625 -3.625 3.625 -3.5 1.125 C-2.5 0.125 -2.5 0.125 0 0 Z M-1.5 2.125 C-1.5 3.115 -1.5 4.105 -1.5 5.125 C-0.51 4.795 0.48 4.465 1.5 4.125 C1.5 3.465 1.5 2.805 1.5 2.125 C0.51 2.125 -0.48 2.125 -1.5 2.125 Z " fill="#3A3838" transform="translate(293.5,53.875)"/>
<path d="M0 0 C0.66 0 1.32 0 2 0 C2 0.66 2 1.32 2 2 C2.66 2 3.32 2 4 2 C4 1.34 4 0.68 4 0 C4.99 0.33 5.98 0.66 7 1 C5.68 3.97 4.36 6.94 3 10 C2.34 10 1.68 10 1 10 C0.67 6.7 0.34 3.4 0 0 Z " fill="#3A3838" transform="translate(164,54)"/>
<path d="M0 0 C0.33 0 0.66 0 1 0 C1.9630643 5.34062927 1.9630643 5.34062927 2 8 C0.625 9.8125 0.625 9.8125 -1 11 C-1.33 11.99 -1.66 12.98 -2 14 C-4.0625 14.6875 -4.0625 14.6875 -6 15 C-6.33 13.68 -6.66 12.36 -7 11 C-6.34 11 -5.68 11 -5 11 C-5 10.34 -5 9.68 -5 9 C-4.34 9 -3.68 9 -3 9 C-1.56270012 6.12540025 -0.85818251 3.08945705 0 0 Z " fill="#D3EAD2" transform="translate(50,43)"/>
<path d="M0 0 C2.64 0 5.28 0 8 0 C8 0.66 8 1.32 8 2 C7.01 2 6.02 2 5 2 C5 4.97 5 7.94 5 11 C4.34 11 3.68 11 3 11 C3 8.03 3 5.06 3 2 C2.01 2 1.02 2 0 2 C0 1.34 0 0.68 0 0 Z " fill="#3A3838" transform="translate(94,50)"/>
<path d="M0 0 C1.65 0 3.3 0 5 0 C4.67 1.32 4.34 2.64 4 4 C4.66 4.33 5.32 4.66 6 5 C6 5.66 6 6.32 6 7 C3.69 7 1.38 7 -1 7 C-0.649375 6.401875 -0.29875 5.80375 0.0625 5.1875 C1.33304698 2.89186786 1.33304698 2.89186786 0 0 Z " fill="#3A3838" transform="translate(114,54)"/>
<path d="M0 0 C1.65 0 3.3 0 5 0 C5 1.65 5 3.3 5 5 C5.66 5 6.32 5 7 5 C7.33 3.68 7.66 2.36 8 1 C8 2.65 8 4.3 8 6 C5.625 6.125 5.625 6.125 3 6 C2.34 5.34 1.68 4.68 1 4 C0.34 4.66 -0.32 5.32 -1 6 C-0.67 4.02 -0.34 2.04 0 0 Z " fill="#88C881" transform="translate(63,50)"/>
<path d="M0 0 C0.66 0 1.32 0 2 0 C2 1.65 2 3.3 2 5 C2.66 5 3.32 5 4 5 C4 3.35 4 1.7 4 0 C4.66 0 5.32 0 6 0 C6 2.31 6 4.62 6 7 C4.02 7 2.04 7 0 7 C0 4.69 0 2.38 0 0 Z " fill="#3A3838" transform="translate(137,54)"/>
<path d="M0 0 C0.66 0 1.32 0 2 0 C1.89300781 0.56847656 1.78601562 1.13695313 1.67578125 1.72265625 C0.7583308 7.63182635 1.43665841 10.65970503 4 16 C3.67 16.99 3.34 17.98 3 19 C-1.20677631 13.08422082 -1.75966558 8.19814268 -1 1 C-0.67 0.67 -0.34 0.34 0 0 Z " fill="#7DC16F" transform="translate(49,20)"/>
<path d="M0 0 C0.66 0 1.32 0 2 0 C2 2.97 2 5.94 2 9 C3.32 9 4.64 9 6 9 C6 9.66 6 10.32 6 11 C4.02 11 2.04 11 0 11 C0 7.37 0 3.74 0 0 Z " fill="#3A3838" transform="translate(309,50)"/>
<path d="M0 0 C0.66 0.33 1.32 0.66 2 1 C-0.03535548 3.95126545 -1.88609964 6.18355812 -5 8 C-8.75 8.6875 -8.75 8.6875 -12 9 C-9.6760567 7.21235131 -7.32419348 5.5539677 -4.875 3.9375 C-2.01766045 2.14513434 -2.01766045 2.14513434 0 0 Z " fill="#2983BD" transform="translate(75,55)"/>
<path d="M0 0 C0.66 0 1.32 0 2 0 C2 0.66 2 1.32 2 2 C2.66 2 3.32 2 4 2 C4 2.66 4 3.32 4 4 C3.34 4 2.68 4 2 4 C2 4.99 2 5.98 2 7 C2.66 7 3.32 7 4 7 C4 7.66 4 8.32 4 9 C2.68 9 1.36 9 0 9 C-1.125 2.25 -1.125 2.25 0 0 Z " fill="#3A3838" transform="translate(316,52)"/>
<path d="M0 0 C-2.28459758 2.28459758 -4.12537344 2.97129748 -7.125 4.125 C-8.03507812 4.47820313 -8.94515625 4.83140625 -9.8828125 5.1953125 C-10.58148438 5.46085937 -11.28015625 5.72640625 -12 6 C-12.66 5.01 -13.32 4.02 -14 3 C-4.58997722 -0.44419134 -4.58997722 -0.44419134 0 0 Z " fill="#57C1F1" transform="translate(49,16)"/>
<path d="M0 0 C2 0 4 0 6 0 C6 0.66 6 1.32 6 2 C5.34 2 4.68 2 4 2 C4.66 3.32 5.32 4.64 6 6 C2 6 2 6 -1 5 C-0.67 3.35 -0.34 1.7 0 0 Z " fill="#60B55B" transform="translate(41,50)"/>
<path d="M0 0 C0.99 0 1.98 0 3 0 C3.33 1.65 3.66 3.3 4 5 C2.02 5 0.04 5 -2 5 C-1.34 3.35 -0.68 1.7 0 0 Z " fill="#53B14A" transform="translate(50,51)"/>
<path d="M0 0 C0.66 0 1.32 0 2 0 C2 2.97 2 5.94 2 9 C1.34 9 0.68 9 0 9 C0 6.03 0 3.06 0 0 Z " fill="#3A3838" transform="translate(255,52)"/>
<path d="M0 0 C0.66 0 1.32 0 2 0 C2 2.97 2 5.94 2 9 C1.34 9 0.68 9 0 9 C0 6.03 0 3.06 0 0 Z " fill="#3A3838" transform="translate(110,52)"/>
<path d="M0 0 C0.66 0 1.32 0 2 0 C1.67 2.31 1.34 4.62 1 7 C0.34 7 -0.32 7 -1 7 C-1.04254356 5.00045254 -1.04080783 2.99958364 -1 1 C-0.67 0.67 -0.34 0.34 0 0 Z " fill="#3A3838" transform="translate(120,30)"/>
<path d="M0 0 C0.66 0 1.32 0 2 0 C1.67 1.32 1.34 2.64 1 4 C0.34 4 -0.32 4 -1 4 C-0.67 2.68 -0.34 1.36 0 0 Z " fill="#3A3838" transform="translate(302,59)"/>
<path d="M0 0 C0.99 0.33 1.98 0.66 3 1 C2.67 1.66 2.34 2.32 2 3 C1.34 3 0.68 3 0 3 C0 2.01 0 1.02 0 0 Z " fill="#3A3838" transform="translate(329,58)"/>
<path d="M0 0 C0.99 0.33 1.98 0.66 3 1 C2.67 1.66 2.34 2.32 2 3 C1.34 3 0.68 3 0 3 C0 2.01 0 1.02 0 0 Z " fill="#3A3838" transform="translate(298,58)"/>
</svg>
